<?xml version="1.0" standalone="no"?>
<!DOCTYPE svg PUBLIC "-//W3C//DTD SVG 20010904//EN"
 "http://www.w3.org/TR/2001/REC-SVG-20010904/DTD/svg10.dtd">
<svg version="1.0" xmlns="http://www.w3.org/2000/svg"
 width="700.000000pt" height="700.000000pt" viewBox="0 0 700.000000 700.000000"
 preserveAspectRatio="xMidYMid meet">
<metadata>
Created by potrace 1.14, written by Peter Selinger 2001-2017
</metadata>
<g transform="translate(0.000000,700.000000) scale(0.100000,-0.100000)"
fill="#000000" stroke="none">
<path d="M4328 6995 c-2 -1 -50 -6 -108 -9 -105 -7 -269 -23 -312 -31 -13 -3
-43 -8 -68 -11 -25 -3 -108 -18 -185 -34 -952 -192 -1651 -715 -2160 -1614
-63 -111 -233 -450 -264 -527 -8 -19 -29 -67 -48 -107 -18 -41 -33 -76 -33
-79 0 -3 -6 -19 -14 -36 -27 -59 -93 -221 -186 -452 -106 -263 -181 -446 -217
-525 -219 -484 -372 -725 -598 -945 -52 -49 -101 -105 -110 -123 -73 -149 60
-331 225 -308 65 9 118 46 235 162 259 260 471 611 702 1164 35 85 70 169 78
185 7 17 27 66 44 110 18 44 36 89 41 100 5 11 32 77 60 148 333 845 606 1326
959 1690 290 299 656 521 1081 655 137 43 418 103 557 117 26 3 62 7 78 10
192 26 627 33 800 11 109 -13 147 -19 224 -37 453 -104 710 -335 791 -709 16
-74 5 -284 -19 -375 -69 -263 -256 -468 -446 -493 -114 -15 -146 -4 -475 161
-389 194 -349 190 -615 58 l-189 -93 -189 93 c-174 86 -194 94 -247 93 -197
-2 -289 -252 -138 -379 18 -15 142 -82 277 -149 314 -156 286 -154 538 -27
101 50 191 91 201 91 10 0 27 -6 37 -14 18 -13 17 -15 -12 -53 -84 -106 -180
-285 -233 -438 -43 -122 -61 -194 -85 -340 -13 -81 -14 -439 -1 -500 3 -16 9
-46 12 -65 20 -128 68 -275 135 -416 209 -439 600 -713 1084 -759 38 -4 344
-7 680 -7 685 0 656 -3 727 73 96 103 65 267 -63 339 l-44 24 -620 2 c-548 1
-667 4 -748 20 -235 45 -455 203 -583 419 -61 102 -121 271 -138 385 -4 25
-10 61 -12 80 -13 82 -6 318 11 380 2 8 6 33 10 55 10 66 73 242 115 322 43
80 131 203 172 241 l24 22 60 -19 c211 -69 453 -48 643 56 275 149 486 461
558 825 32 163 22 416 -23 578 -59 211 -158 382 -310 534 -258 259 -588 400
-1079 461 -51 7 -581 16 -587 10z"/>
<path d="M119 1722 c-77 -40 -114 -102 -114 -191 1 -41 7 -78 17 -97 39 -73
62 -84 499 -259 460 -183 501 -198 619 -218 102 -18 294 -14 385 8 39 9 81 19
95 21 20 4 282 104 378 145 12 5 32 13 45 19 217 92 320 110 473 84 62 -11
214 -63 319 -110 95 -42 343 -134 397 -148 193 -48 428 -39 608 21 49 17 326
125 375 147 202 91 344 116 495 88 59 -10 347 -115 475 -172 185 -83 350 -119
528 -115 95 3 145 10 277 40 40 9 685 264 722 285 10 5 23 10 29 10 5 0 35 11
65 25 30 14 58 25 62 25 5 0 26 13 48 29 129 95 106 304 -41 372 -80 37 -105
31 -487 -121 -194 -78 -362 -145 -373 -150 -37 -18 -153 -59 -182 -65 -15 -3
-64 -8 -109 -12 -84 -6 -213 13 -277 42 -52 23 -437 176 -497 197 -155 56
-371 75 -524 47 -130 -23 -184 -41 -482 -162 -270 -109 -299 -118 -419 -123
-135 -5 -173 5 -497 134 -264 105 -350 135 -432 148 -21 3 -48 7 -60 10 -34 6
-207 6 -256 0 -133 -19 -191 -37 -480 -153 -146 -58 -287 -112 -315 -120 -79
-23 -247 -25 -327 -3 -53 14 -478 178 -573 221 -11 4 -89 36 -172 69 -178 70
-214 74 -294 32z"/>
<path d="M175 870 c-106 -23 -176 -114 -171 -221 3 -68 30 -123 77 -160 37
-30 846 -357 945 -383 104 -26 116 -28 254 -33 83 -3 158 -1 195 7 33 6 73 14
89 17 32 5 183 57 231 78 97 44 400 160 455 175 83 21 209 23 297 3 37 -9 185
-63 328 -120 143 -58 309 -117 370 -133 101 -26 122 -28 265 -26 85 2 169 6
185 10 115 27 181 50 425 147 151 59 306 116 344 124 78 18 182 18 270 -1 49
-11 393 -141 521 -198 34 -15 120 -44 153 -51 12 -3 32 -7 45 -10 83 -20 128
-24 257 -21 80 2 159 7 175 10 108 24 195 56 584 212 454 181 474 192 512 266
41 81 15 208 -54 261 -97 73 -171 68 -392 -29 -16 -7 -111 -45 -210 -84 -99
-40 -189 -76 -200 -81 -235 -100 -316 -123 -445 -122 -110 1 -156 15 -475 141
-343 136 -440 160 -625 157 -192 -4 -263 -23 -593 -156 -139 -56 -281 -110
-317 -121 -81 -24 -230 -26 -316 -5 -50 12 -202 68 -324 119 -32 13 -46 19
-150 61 -188 77 -327 105 -487 102 -186 -4 -264 -24 -548 -137 -110 -44 -213
-86 -230 -93 -133 -59 -268 -80 -400 -62 -64 9 -133 34 -533 194 -227 91 -427
166 -445 167 -18 1 -45 -1 -62 -4z"/>
</g>
</svg>
